<svg width="24" height="24" viewBox="0 0 24 24" fill="none" xmlns="http://www.w3.org/2000/svg">
<path d="M16.539 9.18616C16.0742 9.01677 15.5828 8.93177 15.088 8.93516C13.488 8.93516 12.358 9.74116 12.35 10.8982C12.34 11.7482 13.153 12.2272 13.768 12.5112C14.399 12.8032 14.61 12.9872 14.608 13.2482C14.604 13.6452 14.104 13.8252 13.639 13.8252C13 13.8252 12.651 13.7362 12.114 13.5132L11.915 13.4202L11.688 14.7522C12.077 14.9142 12.778 15.0532 13.502 15.0652C15.203 15.0652 16.315 14.2642 16.328 13.0332C16.342 12.3542 15.902 11.8412 14.976 11.4172C14.413 11.1422 14.064 10.9582 14.064 10.6792C14.064 10.4322 14.363 10.1682 14.988 10.1682C15.404 10.1581 15.8174 10.2361 16.201 10.3972L16.351 10.4642L16.578 9.17716L16.539 9.18616ZM20.691 9.04316H19.441C19.052 9.04316 18.759 9.15016 18.589 9.53616L16.185 14.9822H17.886L18.226 14.0892L20.302 14.0912C20.351 14.3002 20.501 14.9822 20.501 14.9822H22.001L20.691 9.04316ZM10.049 8.99316H11.67L10.656 14.9352L9.03705 14.9352L10.049 8.99116V8.99316ZM5.93405 12.2682L6.10205 13.0932L7.68605 9.04316H9.40305L6.85205 14.9742H5.13905L3.73905 9.95216C3.71637 9.86935 3.66312 9.79823 3.59005 9.75316C3.08545 9.49249 2.55079 9.29468 1.99805 9.16416L2.02005 9.03916H4.62905C4.98305 9.05316 5.26805 9.16416 5.36305 9.54216L5.93305 12.2712V12.2682H5.93405ZM18.691 12.8742L19.337 11.2122C19.329 11.2302 19.47 10.8692 19.552 10.6462L19.663 11.1592L20.038 12.8732H18.69V12.8742H18.691Z" fill="#1A2ADF"/>
</svg>
