<svg width="24" height="24" viewBox="0 0 24 24" fill="none" xmlns="http://www.w3.org/2000/svg">
<g clip-path="url(#clip0_7029_2045)">
<path d="M16.7925 11.9999C16.7925 14.6508 14.6435 16.7998 11.9926 16.7998C9.3417 16.7998 7.19287 14.6508 7.19287 11.9999C7.19287 9.34902 9.3417 7.2002 11.9926 7.2002C14.6435 7.2002 16.7925 9.34902 16.7925 11.9999Z" fill="white"/>
<path d="M23.2801 11.2798H21.6753C21.3145 6.48713 17.5055 2.67747 12.7128 2.31625V0.720012C12.7128 0.322324 12.3903 0 11.9928 0C11.5951 0 11.2728 0.322324 11.2728 0.720012V2.31625C6.47988 2.67747 2.67066 6.48713 2.30988 11.2798H0.720012C0.322324 11.2798 0 11.6024 0 11.9998C0 12.3975 0.322324 12.7198 0.720012 12.7198H2.30988C2.67066 17.5125 6.47988 21.3222 11.2726 21.6834V23.2801C11.2726 23.6778 11.5949 24.0001 11.9926 24.0001C12.39 24.0001 12.7124 23.6778 12.7124 23.2801V21.6834C17.5053 21.3224 21.3145 17.5127 21.6753 12.7198H23.2801C23.6778 12.7198 24.0001 12.3975 24.0001 11.9998C24.0001 11.6024 23.6778 11.2798 23.2801 11.2798ZM11.9926 20.2794C7.42005 20.2792 3.71343 16.5721 3.71343 11.9996C3.71365 7.42686 7.42071 3.72024 11.9932 3.72024C16.566 3.72024 20.2728 7.4273 20.2728 11.9998C20.2673 16.5706 16.5633 20.2744 11.9926 20.2794Z" fill="white"/>
</g>
<defs>
<clipPath id="clip0_7029_2045">
<rect width="24" height="24" fill="white"/>
</clipPath>
</defs>
</svg>
