<svg width="16" height="20" viewBox="0 0 16 20" fill="none" xmlns="http://www.w3.org/2000/svg">
<path fill-rule="evenodd" clip-rule="evenodd" d="M11.215 0C11.415 1.1 10.915 2.2 10.315 3C9.71498 3.8 8.61498 4.5 7.51498 4.4C7.31498 3.3 7.81499 2.3 8.41499 1.5C9.11499 0.7 10.215 0.1 11.215 0ZM14.415 17.4C14.915 16.6 15.215 16.1 15.615 15.2C12.515 14 12.015 9.6 15.115 8C14.215 6.8 12.915 6.2 11.615 6.2C10.715 6.2 10.115 6.4 9.51499 6.6C9.01499 6.8 8.61499 6.9 8.11499 6.9C7.51499 6.9 7.11498 6.7 6.51498 6.5C5.91498 6.3 5.31498 6.1 4.61498 6.1C3.21498 6.1 1.71498 6.9 0.814985 8.4C-0.485015 10.4 -0.285015 14.3 1.81499 17.5C2.71498 18.7 3.71498 20 5.01498 20C5.61498 20 5.91498 19.8 6.31498 19.7C6.81498 19.5 7.31499 19.3 8.11499 19.3C9.01499 19.3 9.41499 19.5 9.91499 19.7C10.315 19.9 10.615 20 11.215 20C12.615 20 13.615 18.5 14.415 17.4Z" fill="black"/>
</svg>
