<svg width="20" height="20" viewBox="0 0 20 20" fill="none" xmlns="http://www.w3.org/2000/svg">
<g clip-path="url(#clip0_0_319)">
<path d="M12.8046 14.8425L13.1819 15.0354L13.434 14.6948C13.9851 13.9502 14.8675 13.4688 15.8594 13.4688C17.5217 13.4688 18.875 14.822 18.875 16.4844C18.875 18.1467 17.5217 19.5 15.8594 19.5C14.197 19.5 12.8438 18.1467 12.8438 16.4844C12.8438 16.1727 12.8912 15.8727 12.9789 15.5906L13.1039 15.1885L12.729 14.9969L7.22663 12.185L6.84353 11.9892L6.5928 12.3388C6.04385 13.1042 5.14876 13.6016 4.14062 13.6016C2.47825 13.6016 1.125 12.2483 1.125 10.5859C1.125 8.92356 2.47825 7.57031 4.14062 7.57031C5.0425 7.57031 5.85341 7.96817 6.40772 8.60004L6.68313 8.91398L7.0411 8.6989L12.8391 5.21531L13.2005 4.99822L13.0476 4.6054C12.9162 4.26762 12.8438 3.9004 12.8438 3.51562C12.8438 1.85325 14.197 0.5 15.8594 0.5C17.5217 0.5 18.875 1.85325 18.875 3.51562C18.875 5.178 17.5217 6.53125 15.8594 6.53125C14.9419 6.53125 14.1184 6.1194 13.5636 5.46828L13.2888 5.14569L12.9255 5.36395L7.14195 8.83887L6.77523 9.0592L6.93619 9.45558C7.07789 9.80451 7.15625 10.1858 7.15625 10.5859C7.15625 10.8814 7.11341 11.1665 7.0341 11.436L6.91703 11.8337L7.28622 12.0224L12.8046 14.8425ZM18.7031 3.51562C18.7031 1.94714 17.4279 0.671875 15.8594 0.671875C14.2909 0.671875 13.0156 1.94714 13.0156 3.51562C13.0156 5.08411 14.2909 6.35938 15.8594 6.35938C17.4279 6.35938 18.7031 5.08411 18.7031 3.51562ZM1.29688 10.5859C1.29688 12.1544 2.57214 13.4297 4.14062 13.4297C5.70911 13.4297 6.98438 12.1544 6.98438 10.5859C6.98438 9.01745 5.70911 7.74219 4.14062 7.74219C2.57214 7.74219 1.29688 9.01745 1.29688 10.5859ZM13.0156 16.4844C13.0156 18.0529 14.2909 19.3281 15.8594 19.3281C17.4279 19.3281 18.7031 18.0529 18.7031 16.4844C18.7031 14.9159 17.4279 13.6406 15.8594 13.6406C14.2909 13.6406 13.0156 14.9159 13.0156 16.4844Z" fill="black" stroke="black"/>
</g>
<defs>
<clipPath id="clip0_0_319">
<rect width="20" height="20" fill="white"/>
</clipPath>
</defs>
</svg>
