<svg width="24" height="24" viewBox="0 0 24 24" fill="none" xmlns="http://www.w3.org/2000/svg">
<path d="M22.25 10C22.25 10.1339 22.1339 10.25 22 10.25C20.7639 10.25 19.75 11.2639 19.75 12.5C19.75 13.7361 20.7639 14.75 22 14.75C22.1339 14.75 22.25 14.8661 22.25 15C22.25 17.1878 21.9094 18.441 21.1752 19.1752C20.441 19.9094 19.1878 20.25 17 20.25H11.25V18.5C11.25 17.8139 10.6861 17.25 10 17.25C9.31386 17.25 8.75 17.8139 8.75 18.5V20.25H7C4.81222 20.25 3.55896 19.9094 2.8248 19.1752C2.09065 18.441 1.75 17.1878 1.75 15V14.5C1.75 14.3661 1.86614 14.25 2 14.25C3.23614 14.25 4.25 13.2361 4.25 12C4.25 10.7639 3.23614 9.75 2 9.75C1.86614 9.75 1.75 9.63386 1.75 9.5V9C1.75 6.81222 2.09065 5.55896 2.8248 4.8248C3.55896 4.09065 4.81222 3.75 7 3.75H8.75V5.5C8.75 6.18614 9.31386 6.75 10 6.75C10.6861 6.75 11.25 6.18614 11.25 5.5V3.75H17C19.1878 3.75 20.441 4.09065 21.1752 4.8248C21.9094 5.55896 22.25 6.81222 22.25 9V10ZM10 15.42C10.6861 15.42 11.25 14.8561 11.25 14.17V9.83C11.25 9.14386 10.6861 8.58 10 8.58C9.31386 8.58 8.75 9.14386 8.75 9.83V14.17C8.75 14.8561 9.31386 15.42 10 15.42Z" fill="#2FB0BD" stroke="#2FB0BD"/>
</svg>
