<svg width="22" height="22" viewBox="0 0 22 22" fill="none" xmlns="http://www.w3.org/2000/svg">
<path d="M20.1666 7.979H1.83325C1.73356 7.979 1.64575 7.8912 1.64575 7.7915C1.64575 7.69181 1.73356 7.604 1.83325 7.604H20.1666C20.2663 7.604 20.3541 7.69181 20.3541 7.7915C20.3541 7.8912 20.2663 7.979 20.1666 7.979Z" fill="#292D32" stroke="black"/>
<path d="M7.33333 15.3125H5.5C5.40031 15.3125 5.3125 15.2247 5.3125 15.125C5.3125 15.0253 5.40031 14.9375 5.5 14.9375H7.33333C7.43302 14.9375 7.52083 15.0253 7.52083 15.125C7.52083 15.2247 7.43302 15.3125 7.33333 15.3125Z" fill="#292D32" stroke="black"/>
<path d="M13.2917 15.8125H9.625C9.24917 15.8125 8.9375 15.5008 8.9375 15.125C8.9375 14.7492 9.24917 14.4375 9.625 14.4375H13.2917C13.6675 14.4375 13.9792 14.7492 13.9792 15.125C13.9792 15.5008 13.6675 15.8125 13.2917 15.8125Z" fill="#292D32"/>
<path d="M16.0966 19.4793H5.90325C2.25492 19.4793 1.14575 18.3793 1.14575 14.7677V7.23266C1.14575 3.621 2.25492 2.521 5.90325 2.521H16.0874C19.7358 2.521 20.8449 3.621 20.8449 7.23266V14.7585C20.8541 18.3793 19.7449 19.4793 16.0966 19.4793ZM5.90325 3.896C3.02492 3.896 2.52075 4.391 2.52075 7.23266V14.7585C2.52075 17.6002 3.02492 18.0952 5.90325 18.0952H16.0874C18.9658 18.0952 19.4699 17.6002 19.4699 14.7585V7.23266C19.4699 4.391 18.9658 3.896 16.0874 3.896H5.90325Z" fill="#292D32"/>
</svg>
