<svg width="45" height="64" viewBox="0 0 45 64" fill="none" xmlns="http://www.w3.org/2000/svg">
<path d="M2.90909 64H41.697C43.3036 64 44.6061 62.6975 44.6061 61.0909V28.1212C44.6061 26.5146 43.3036 25.2121 41.697 25.2121H38.7879V16.4848C38.7879 7.3951 31.3928 0 22.303 0C13.2133 0 5.81818 7.3951 5.81818 16.4848V25.2121H2.90909C1.3025 25.2121 0 26.5146 0 28.1212V61.0909C0 62.6975 1.3025 64 2.90909 64ZM30.5418 42.5418L22.2993 50.7842C21.7313 51.3522 20.9868 51.6364 20.2424 51.6364C19.4981 51.6364 18.7534 51.3522 18.1855 50.7842L14.0643 46.663C12.9282 45.5269 12.9282 43.6852 14.0643 42.5489C15.2002 41.4128 17.0422 41.4128 18.1783 42.5489L20.2426 44.613L26.4281 38.4277C27.564 37.2916 29.4061 37.2916 30.5422 38.4277C31.6781 39.564 31.6781 41.4057 30.5418 42.5418ZM11.6364 16.4848C11.6364 10.6032 16.4214 5.81818 22.303 5.81818C28.1846 5.81818 32.9697 10.6032 32.9697 16.4848V25.2121H11.6364V16.4848Z" fill="#2FB0BD"/>
</svg>
