<svg width="20" height="20" viewBox="0 0 20 20" fill="none" xmlns="http://www.w3.org/2000/svg">
<path d="M15.2288 13.1252C15.2288 13.4243 14.9863 13.6668 14.6872 13.6668C14.388 13.6668 14.1455 13.4243 14.1455 13.1252C14.1455 12.826 14.388 12.5835 14.6872 12.5835C14.9863 12.5835 15.2288 12.826 15.2288 13.1252Z" fill="#231F20" stroke="black"/>
<path d="M5.85384 13.1252C5.85384 13.4243 5.61133 13.6668 5.31217 13.6668C5.01302 13.6668 4.77051 13.4243 4.77051 13.1252C4.77051 12.826 5.01302 12.5835 5.31217 12.5835C5.61133 12.5835 5.85384 12.826 5.85384 13.1252Z" fill="#231F20" stroke="black"/>
<path d="M17.8123 6.87508V4.79175C17.8123 3.06597 16.4131 1.66675 14.6873 1.66675H5.31234C3.58656 1.66675 2.18734 3.06597 2.18734 4.79175V6.87508C1.89958 6.87508 1.6665 7.10815 1.6665 7.39592V9.47925C1.6665 9.76701 1.89958 10.0001 2.18734 10.0001V15.2084C2.18734 15.7842 2.65322 16.2501 3.229 16.2501V17.8126C3.229 18.1003 3.46208 18.3334 3.74984 18.3334H5.83317C6.12093 18.3334 6.354 18.1003 6.354 17.8126V16.2501H13.6457V17.8126C13.6457 18.1003 13.8787 18.3334 14.1665 18.3334H16.2498C16.5376 18.3334 16.7707 18.1003 16.7707 17.8126V16.2501C17.3465 16.2501 17.8123 15.7842 17.8123 15.2084V10.0001C18.1001 10.0001 18.3332 9.76701 18.3332 9.47925V7.39592C18.3332 7.10815 18.1001 6.87508 17.8123 6.87508ZM5.31234 2.70841H14.6873C15.4563 2.70841 16.1207 3.13003 16.4819 3.75008H3.51781C3.879 3.13003 4.54333 2.70841 5.31234 2.70841ZM3.229 4.79175H9.479V10.0001H3.229V4.79175ZM5.31234 17.2917H4.27067V16.2501H5.31234V17.2917ZM15.729 17.2917H14.6873V16.2501H15.729V17.2917ZM16.7707 14.6876C16.7707 14.9753 16.5376 15.2084 16.2498 15.2084H3.74984C3.46208 15.2084 3.229 14.9753 3.229 14.6876V11.0417H16.7707V14.6876ZM16.7707 10.0001H10.5207V4.79175H16.7707V10.0001Z" fill="#231F20"/>
</svg>
