<svg width="24" height="24" viewBox="0 0 24 24" fill="none" xmlns="http://www.w3.org/2000/svg">
<g clip-path="url(#clip0_7042_2643)">
<mask id="path-1-inside-1_7042_2643" fill="white">
<path d="M18 15H6V16H18V15Z"/>
</mask>
<path d="M18 15H6V16H18V15Z" fill="black"/>
<path d="M6 15V4.33333H-4.66667V15H6ZM18 15H28.6667V4.33333H18V15ZM18 16V26.6667H28.6667V16H18ZM6 16H-4.66667V26.6667H6V16ZM6 25.6667H18V4.33333H6V25.6667ZM7.33333 15V16H28.6667V15H7.33333ZM18 5.33333H6V26.6667H18V5.33333ZM16.6667 16V15H-4.66667V16H16.6667Z" fill="black" mask="url(#path-1-inside-1_7042_2643)"/>
<mask id="path-3-inside-2_7042_2643" fill="white">
<path d="M19.5 9.5H18.5V4.5C18.4989 3.57207 18.1299 2.68244 17.4737 2.0263C16.8176 1.37015 15.9279 1.00106 15 1H9C8.07207 1.00106 7.18244 1.37015 6.5263 2.0263C5.87015 2.68244 5.50106 3.57207 5.5 4.5V9.5H4.5V4.5C4.50132 3.30693 4.97585 2.16311 5.81948 1.31948C6.66311 0.475854 7.80693 0.00132343 9 0L15 0C16.1931 0.00132343 17.3369 0.475854 18.1805 1.31948C19.0241 2.16311 19.4987 3.30693 19.5 4.5V9.5Z"/>
</mask>
<path d="M19.5 9.5H18.5V4.5C18.4989 3.57207 18.1299 2.68244 17.4737 2.0263C16.8176 1.37015 15.9279 1.00106 15 1H9C8.07207 1.00106 7.18244 1.37015 6.5263 2.0263C5.87015 2.68244 5.50106 3.57207 5.5 4.5V9.5H4.5V4.5C4.50132 3.30693 4.97585 2.16311 5.81948 1.31948C6.66311 0.475854 7.80693 0.00132343 9 0L15 0C16.1931 0.00132343 17.3369 0.475854 18.1805 1.31948C19.0241 2.16311 19.4987 3.30693 19.5 4.5V9.5Z" fill="black"/>
<path d="M19.5 9.5V20.1667H30.1667V9.5H19.5ZM18.5 9.5H7.83333V20.1667H18.5V9.5ZM18.5 4.5H29.1667L29.1667 4.48783L18.5 4.5ZM15 1L15.0122 -9.66667H15V1ZM9 1V-9.66667L8.98783 -9.66666L9 1ZM5.5 4.5L-5.16667 4.48783V4.5H5.5ZM5.5 9.5V20.1667H16.1667V9.5H5.5ZM4.5 9.5H-6.16667V20.1667H4.5V9.5ZM4.5 4.5L-6.16667 4.48817V4.5H4.5ZM9 0V-10.6667L8.98817 -10.6667L9 0ZM15 0L15.0118 -10.6667H15V0ZM19.5 4.5H30.1667L30.1667 4.48817L19.5 4.5ZM19.5 -1.16667H18.5V20.1667H19.5V-1.16667ZM29.1667 9.5V4.5H7.83333V9.5H29.1667ZM29.1667 4.48783C29.1624 0.735147 27.6697 -2.86262 25.0162 -5.51618L9.93123 9.56877C8.58997 8.22751 7.8355 6.40899 7.83334 4.51217L29.1667 4.48783ZM25.0162 -5.51618C22.3626 -8.16973 18.7649 -9.66238 15.0122 -9.66666L14.9878 11.6667C13.091 11.6645 11.2725 10.91 9.93123 9.56877L25.0162 -5.51618ZM15 -9.66667H9V11.6667H15V-9.66667ZM8.98783 -9.66666C5.23514 -9.66238 1.63738 -8.16973 -1.01618 -5.51618L14.0688 9.56877C12.7275 10.91 10.909 11.6645 9.01217 11.6667L8.98783 -9.66666ZM-1.01618 -5.51618C-3.66973 -2.86262 -5.16238 0.735139 -5.16666 4.48783L16.1667 4.51217C16.1645 6.409 15.41 8.22751 14.0688 9.56877L-1.01618 -5.51618ZM-5.16667 4.5V9.5H16.1667V4.5H-5.16667ZM5.5 -1.16667H4.5V20.1667H5.5V-1.16667ZM15.1667 9.5V4.5H-6.16667V9.5H15.1667ZM15.1667 4.51183C15.1649 6.14364 14.5158 7.70809 13.362 8.86195L-1.72299 -6.22299C-4.56411 -3.38188 -6.1622 0.470224 -6.16666 4.48817L15.1667 4.51183ZM13.362 8.86195C12.2081 10.0158 10.6436 10.6649 9.01183 10.6667L8.98817 -10.6667C4.97023 -10.6622 1.11812 -9.06411 -1.72299 -6.22299L13.362 8.86195ZM9 10.6667H15V-10.6667H9V10.6667ZM14.9882 10.6667C13.3564 10.6649 11.7919 10.0158 10.638 8.86195L25.723 -6.22299C22.8819 -9.06411 19.0298 -10.6622 15.0118 -10.6667L14.9882 10.6667ZM10.638 8.86195C9.48418 7.70809 8.83515 6.14364 8.83334 4.51183L30.1667 4.48817C30.1622 0.470227 28.5641 -3.38187 25.723 -6.22299L10.638 8.86195ZM8.83333 4.5V9.5H30.1667V4.5H8.83333Z" fill="black" mask="url(#path-3-inside-2_7042_2643)"/>
<path d="M19 24H5C4.3372 23.9992 3.70178 23.7356 3.23311 23.2669C2.76444 22.7982 2.50079 22.1628 2.5 21.5V11C2.5 10.4696 2.71071 9.96086 3.08579 9.58579C3.46086 9.21071 3.96957 9 4.5 9C5.03043 9 5.53914 9.21071 5.91421 9.58579C6.28929 9.96086 6.5 10.4696 6.5 11V15H17.5V11C17.5 10.4696 17.7107 9.96086 18.0858 9.58579C18.4609 9.21071 18.9696 9 19.5 9C20.0304 9 20.5391 9.21071 20.9142 9.58579C21.2893 9.96086 21.5 10.4696 21.5 11V21.5C21.4992 22.1628 21.2356 22.7982 20.7669 23.2669C20.2982 23.7356 19.6628 23.9992 19 24ZM4.5 10C4.23478 10 3.98043 10.1054 3.79289 10.2929C3.60536 10.4804 3.5 10.7348 3.5 11V21.5C3.5 21.8978 3.65804 22.2794 3.93934 22.5607C4.22064 22.842 4.60218 23 5 23H19C19.3978 23 19.7794 22.842 20.0607 22.5607C20.342 22.2794 20.5 21.8978 20.5 21.5V11C20.5 10.7348 20.3946 10.4804 20.2071 10.2929C20.0196 10.1054 19.7652 10 19.5 10C19.2348 10 18.9804 10.1054 18.7929 10.2929C18.6054 10.4804 18.5 10.7348 18.5 11V15.5C18.5 15.6326 18.4473 15.7598 18.3536 15.8536C18.2598 15.9473 18.1326 16 18 16H6C5.86739 16 5.74021 15.9473 5.64645 15.8536C5.55268 15.7598 5.5 15.6326 5.5 15.5V11C5.5 10.7348 5.39464 10.4804 5.20711 10.2929C5.01957 10.1054 4.76522 10 4.5 10Z" fill="black"/>
<path d="M14.5 7H9.5C9.10218 7 8.72064 6.84197 8.43934 6.56066C8.15804 6.27936 8 5.89783 8 5.5V0.5C8 0.367392 8.05268 0.240215 8.14645 0.146447C8.24021 0.0526784 8.36739 0 8.5 0L15.5 0C15.6326 0 15.7598 0.0526784 15.8536 0.146447C15.9473 0.240215 16 0.367392 16 0.5V5.5C16 5.89783 15.842 6.27936 15.5607 6.56066C15.2794 6.84197 14.8978 7 14.5 7ZM9 1V5.5C9 5.63261 9.05268 5.75979 9.14645 5.85355C9.24021 5.94732 9.36739 6 9.5 6H14.5C14.6326 6 14.7598 5.94732 14.8536 5.85355C14.9473 5.75979 15 5.63261 15 5.5V1H9Z" fill="black"/>
<path d="M18 21H5.5V22H18V21Z" fill="black"/>
<path d="M18 13.5H6V14.5H18V13.5Z" fill="black"/>
</g>
<defs>
<clipPath id="clip0_7042_2643">
<rect width="24" height="24" fill="white"/>
</clipPath>
</defs>
</svg>
