<svg width="20" height="20" viewBox="0 0 20 20" fill="none" xmlns="http://www.w3.org/2000/svg">
<path d="M7.8916 12.7334C7.73327 12.7334 7.57493 12.6751 7.44993 12.5501C6.7666 11.8667 6.3916 10.9584 6.3916 10.0001C6.3916 8.00839 8.00827 6.39172 9.99993 6.39172C10.9583 6.39172 11.8666 6.76672 12.5499 7.45006C12.6666 7.56672 12.7333 7.72506 12.7333 7.89172C12.7333 8.05839 12.6666 8.21672 12.5499 8.33339L8.33327 12.5501C8.20827 12.6751 8.04994 12.7334 7.8916 12.7334ZM9.99993 7.64172C8.69993 7.64172 7.6416 8.70006 7.6416 10.0001C7.6416 10.4167 7.74993 10.8167 7.94993 11.1667L11.1666 7.95006C10.8166 7.75006 10.4166 7.64172 9.99993 7.64172Z" fill="#696969"/>
<path d="M4.66654 15.4249C4.52487 15.4249 4.37487 15.3749 4.2582 15.2749C3.36654 14.5166 2.56654 13.5833 1.8832 12.4999C0.99987 11.1249 0.99987 8.88328 1.8832 7.49994C3.91654 4.31661 6.87487 2.48328 9.99987 2.48328C11.8332 2.48328 13.6415 3.11661 15.2249 4.30828C15.4999 4.51661 15.5582 4.90828 15.3499 5.18328C15.1415 5.45828 14.7499 5.51661 14.4749 5.30828C13.1082 4.27494 11.5582 3.73328 9.99987 3.73328C7.3082 3.73328 4.7332 5.34994 2.9332 8.17494C2.3082 9.14994 2.3082 10.8499 2.9332 11.8249C3.5582 12.7999 4.27487 13.6416 5.06654 14.3249C5.32487 14.5499 5.3582 14.9416 5.1332 15.2083C5.01654 15.3499 4.84154 15.4249 4.66654 15.4249Z" fill="#696969"/>
<path d="M10.0001 17.5167C8.8918 17.5167 7.80847 17.2917 6.7668 16.85C6.45013 16.7167 6.30013 16.35 6.43347 16.0334C6.5668 15.7167 6.93347 15.5667 7.25013 15.7C8.13347 16.075 9.05847 16.2667 9.9918 16.2667C12.6835 16.2667 15.2585 14.65 17.0585 11.825C17.6835 10.85 17.6835 9.15004 17.0585 8.17504C16.8001 7.76671 16.5168 7.37504 16.2168 7.00837C16.0001 6.74171 16.0418 6.35004 16.3085 6.12504C16.5751 5.90837 16.9668 5.94171 17.1918 6.21671C17.5168 6.61671 17.8335 7.05004 18.1168 7.50004C19.0001 8.87504 19.0001 11.1167 18.1168 12.5C16.0835 15.6834 13.1251 17.5167 10.0001 17.5167Z" fill="#696969"/>
<path d="M10.5751 13.5584C10.2835 13.5584 10.0168 13.35 9.95848 13.05C9.89181 12.7084 10.1168 12.3834 10.4585 12.325C11.3751 12.1584 12.1418 11.3917 12.3085 10.475C12.3751 10.1334 12.7001 9.91671 13.0418 9.97504C13.3835 10.0417 13.6085 10.3667 13.5418 10.7084C13.2751 12.15 12.1251 13.2917 10.6918 13.5584C10.6501 13.55 10.6168 13.5584 10.5751 13.5584Z" fill="#696969"/>
<path d="M1.66686 18.9584C1.50853 18.9584 1.3502 18.9001 1.2252 18.7751C0.983529 18.5334 0.983529 18.1334 1.2252 17.8917L7.4502 11.6667C7.69186 11.4251 8.09186 11.4251 8.33353 11.6667C8.5752 11.9084 8.5752 12.3084 8.33353 12.5501L2.10853 18.7751C1.98353 18.9001 1.8252 18.9584 1.66686 18.9584Z" fill="#696969"/>
<path d="M12.1083 8.51662C11.9499 8.51662 11.7916 8.45829 11.6666 8.33329C11.4249 8.09162 11.4249 7.69162 11.6666 7.44995L17.8916 1.22495C18.1333 0.983285 18.5333 0.983285 18.7749 1.22495C19.0166 1.46662 19.0166 1.86662 18.7749 2.10828L12.5499 8.33329C12.4249 8.45829 12.2666 8.51662 12.1083 8.51662Z" fill="#696969"/>
</svg>
