<svg width="87" height="119" viewBox="0 0 87 119" fill="none" xmlns="http://www.w3.org/2000/svg">
<path fill-rule="evenodd" clip-rule="evenodd" d="M74.2609 86.1912C88.6247 71.9024 90.841 50.1001 80.9132 33.4909C80.3253 35.0696 78.7969 36.2002 77.0105 36.2002H75.2084C74.7799 36.2002 74.3654 36.135 73.9759 36.014V41.1572C76.074 45.5294 77.2479 50.4237 77.2479 55.5905C77.2479 74.1295 62.1356 89.1629 43.4993 89.1629C24.8645 89.1629 9.75218 74.1295 9.75218 55.5905C9.75218 50.3126 10.9778 45.3183 13.1621 40.8736L13.1286 35.9806C12.7085 36.1237 12.259 36.2001 11.7927 36.2001H9.9895C8.20255 36.2001 6.67414 35.0695 6.08824 33.4908C-3.84166 50.1001 -1.62489 71.9024 12.7389 86.1912L43.4991 116.792L74.2609 86.1912Z" fill="#252421"/>
<path fill-rule="evenodd" clip-rule="evenodd" d="M66.8184 52.6928C59.971 55.4583 54.3389 56.9846 51.2571 59.1266C52.8204 60.814 57.5815 61.5082 59.6166 60.5545C62.5418 59.1839 67.5053 55.5348 66.8184 52.6928ZM20.3417 52.6928C27.191 55.4583 32.823 56.9846 35.9035 59.1266C34.4702 60.675 29.6698 61.4846 27.8498 60.6931C24.9801 59.4436 19.6315 55.6362 20.3417 52.6928ZM68.6343 24.43V43.7578C68.6343 48.7854 53.2084 51.1528 46.6856 51.1528H39.9594C32.7767 51.1528 18.3652 49.1602 18.3652 42.7012V24.2023C19.1722 24.6657 19.4194 24.599 19.7749 25.7349C19.9522 26.3042 20.4254 26.5599 20.9571 26.6696C35.9925 29.7629 51.1368 29.5047 66.3579 26.6696C66.8995 26.5697 67.3782 26.2934 67.5485 25.7115C67.8193 24.7921 68.0483 24.7548 68.6343 24.43ZM75.2083 23.0331H75.425V22.2234C75.425 21.5528 74.8764 21.0071 74.2023 21.0071H71.821V19.6463H75.5712C76.2442 19.6463 76.7928 20.192 76.7928 20.8611C76.7928 21.586 76.7928 22.3096 76.7928 23.033H77.0105C78.1114 23.033 79.0135 23.9285 79.0135 25.0256V32.0635C79.0135 33.1592 78.1114 34.0561 77.0105 34.0561H75.2083C74.1058 34.0561 73.2057 33.1592 73.2057 32.0635V25.0256C73.2057 23.9285 74.1059 23.0331 75.2083 23.0331ZM11.7926 23.0331H11.575V22.2234C11.575 21.5528 12.125 21.0071 12.7976 21.0071H15.1804V21.2197V22.2762H15.1887L15.4984 67.0707L18.0121 68.0562V70.8738C18.0121 71.6971 18.6 72.2815 19.4278 72.2815H25.4464C26.2613 72.2815 26.5085 72.0371 26.5085 71.225V68.0562H35.3017L36.5554 65.7986H50.5396L51.8445 68.0562H60.493V71.225C60.493 72.0371 60.7387 72.2815 61.5536 72.2815H67.5722C68.4014 72.2815 68.9874 71.6971 68.9874 70.8738V68.0562C72.9975 67.7247 71.8211 61.6126 71.8211 57.1399C71.8211 52.4438 71.8211 47.7484 71.8211 43.0539V38.1732V32.4887V22.2762V21.2197V18.7162V6.60706C71.8211 -1.2238 15.1804 -3.63723 15.1804 8.01482V18.1842V19.6463H11.4282C10.7556 19.6463 10.2056 20.192 10.2056 20.8611C10.2056 21.586 10.2056 22.3096 10.2056 23.033H9.98938C8.88786 23.033 7.98779 23.9285 7.98779 25.0256V32.0635C7.98779 33.1592 8.88786 34.0561 9.98938 34.0561H11.7925C12.8941 34.0561 13.7956 33.1592 13.7956 32.0635V25.0256C13.7957 23.9285 12.8941 23.0331 11.7926 23.0331ZM18.3652 8.81089C18.3652 7.98988 19.3106 7.05001 20.1368 7.05001H66.1571C67.3492 7.05001 68.6343 7.67207 68.6343 8.81089V18.0329L67.5623 18.6148H50.0299H38.4925H20.9616L18.3652 17.207V8.81089Z" fill="#2FB0BD"/>
<path fill-rule="evenodd" clip-rule="evenodd" d="M43.4992 69.7378C58.8891 69.7378 71.3686 70.8026 71.3686 72.1164C71.3686 73.4296 58.8891 74.4945 43.4992 74.4945C28.1107 74.4945 15.6323 73.4296 15.6323 72.1164C15.6323 70.8026 28.1107 69.7378 43.4992 69.7378Z" fill="#D7D7D7"/>
<path fill-rule="evenodd" clip-rule="evenodd" d="M43.4991 113.81C52.058 113.81 58.9979 114.972 58.9979 116.405C58.9979 117.838 52.058 119 43.4991 119C34.9417 119 28.0017 117.838 28.0017 116.405C28.0018 114.972 34.9417 113.81 43.4991 113.81Z" fill="#D7D7D7"/>
</svg>
