<svg width="40" height="53" viewBox="0 0 40 53" fill="none" xmlns="http://www.w3.org/2000/svg">
<circle cx="19.2426" cy="18.6482" r="11.7778" fill="white"/>
<path d="M33.558 6.09696C31.464 3.9453 29.0108 2.36367 26.3964 1.34919C21.3185 -0.621336 15.6298 -0.438462 10.7535 1.93137C8.96296 2.80176 7.28116 3.96266 5.78211 5.42449L5.76959 5.43664C1.94084 9.17572 0 14.1457 0 19.1637C0 30.5557 17.4921 53 19.5821 53C21.3094 53 39.2593 30.8266 39.2593 19.1649C39.2598 14.4513 37.1379 9.77468 33.558 6.09696ZM19.6942 28.4573C14.8419 28.4579 10.9072 24.4596 10.9066 19.5266C10.9061 14.5936 14.8396 10.5947 19.6925 10.5941C24.5449 10.5936 28.4796 14.5919 28.4801 19.5249C28.4801 24.4572 24.5466 28.4567 19.6942 28.4573Z" fill="#E2BD3E"/>
</svg>
