<svg width="64" height="64" viewBox="0 0 64 64" fill="none" xmlns="http://www.w3.org/2000/svg">
<path d="M54.6274 9.3725C48.5834 3.32863 40.5475 0 32 0C23.4524 0 15.4165 3.32863 9.3725 9.3725C3.32863 15.4165 0 23.4525 0 32C0 40.5475 3.32863 48.5834 9.3725 54.6274C15.4165 60.6714 23.4525 64 32 64C40.5475 64 48.5834 60.6714 54.6274 54.6275C60.6714 48.5834 64 40.5475 64 32C64 23.4525 60.6714 15.4166 54.6274 9.3725ZM47.2882 24.3841L29.4051 42.2674C29.039 42.6335 28.5591 42.8165 28.0794 42.8165C27.5995 42.8165 27.1196 42.6335 26.7535 42.2674L16.7118 32.2257C15.9795 31.4936 15.9795 30.3065 16.7118 29.5741C17.4439 28.8419 18.6311 28.8419 19.3634 29.5741L28.0794 38.29L44.6366 21.7325C45.3687 21.0002 46.556 21.0002 47.2882 21.7325C48.0205 22.4648 48.0205 23.6519 47.2882 24.3841Z" fill="#2FB0BD"/>
</svg>
