<svg width="21" height="20" viewBox="0 0 21 20" fill="none" xmlns="http://www.w3.org/2000/svg">
<path d="M5.68826 18.3332H14.5064C16.8287 18.3332 17.7543 16.9248 17.8637 15.2082L18.3012 8.32484C18.419 6.52484 16.9718 4.99984 15.1459 4.99984C14.6326 4.99984 14.1614 4.70817 13.9258 4.25817L13.32 3.04984C12.9329 2.2915 11.9232 1.6665 11.065 1.6665H9.13809C8.27143 1.6665 7.26172 2.2915 6.87466 3.04984L6.26884 4.25817C6.03324 4.70817 5.56204 4.99984 5.04877 4.99984C3.22288 4.99984 1.77563 6.52484 1.89343 8.32484L2.33097 15.2082C2.43194 16.9248 3.36593 18.3332 5.68826 18.3332Z" stroke="black" stroke-width="1.5" stroke-linecap="round" stroke-linejoin="round"/>
<path d="M8.83496 6.6665H11.3592" stroke="black" stroke-width="1.5" stroke-linecap="round" stroke-linejoin="round"/>
<path d="M10.0969 15.0002C11.6031 15.0002 12.8316 13.7835 12.8316 12.2918C12.8316 10.8002 11.6031 9.5835 10.0969 9.5835C8.59078 9.5835 7.3623 10.8002 7.3623 12.2918C7.3623 13.7835 8.59078 15.0002 10.0969 15.0002Z" stroke="black" stroke-width="1.5" stroke-linecap="round" stroke-linejoin="round"/>
</svg>
