<svg width="156" height="20" viewBox="0 0 156 20" fill="none" xmlns="http://www.w3.org/2000/svg">
<path d="M10.0917 0L13.2101 6.54364L20.1835 7.59265L15.1374 12.6862L16.3288 19.8781L10.0917 16.4827L3.85465 19.8781L5.04568 12.6862L0 7.59265L6.97301 6.54364L10.0917 0Z" fill="white"/>
<path d="M44.0461 0L47.1648 6.54364L54.1378 7.59265L49.0921 12.6862L50.2831 19.8781L44.0461 16.4827L37.809 19.8781L39.0004 12.6862L33.9543 7.59265L40.9277 6.54364L44.0461 0Z" fill="white"/>
<path d="M78.0004 0L81.1187 6.54364L88.0917 7.59265L83.046 12.6862L84.2371 19.8781L78.0004 16.4827L71.7633 19.8781L72.9543 12.6862L67.9086 7.59265L74.8816 6.54364L78.0004 0Z" fill="white"/>
<path d="M111.954 0L115.073 6.54364L122.046 7.59265L117 12.6862L118.191 19.8781L111.954 16.4827L105.717 19.8781L106.908 12.6862L101.862 7.59265L108.836 6.54364L111.954 0Z" fill="white"/>
<path d="M145.909 0L149.027 6.54364L156 7.59265L150.955 12.6862L152.146 19.8781L145.909 16.4827L139.672 19.8781L140.863 12.6862L135.817 7.59265L142.79 6.54364L145.909 0Z" fill="white"/>
</svg>
