<svg width="24" height="24" viewBox="0 0 24 24" fill="none" xmlns="http://www.w3.org/2000/svg">
<path d="M18.9998 7C18.9998 7.2 18.9998 7.3 18.9998 7.5C18.8998 9 18.1998 10.3 17.2998 11.2C16.1998 12.3 14.6998 13 12.9998 13H9.89982C9.39982 13 8.99982 13.4 8.89982 13.9L8.09982 19.2C7.99982 19.6 7.79982 19.9 7.39982 20C7.29982 20 7.19982 20 7.09982 20H5.19982C4.59982 20 4.09982 19.5 4.19982 18.8L6.59982 4.5C6.79982 3.1 8.09982 2 9.49982 2L13.9998 2C16.7998 2 18.9998 4.2 18.9998 7Z" fill="#002987"/>
<path d="M20.9998 11C20.9998 12.4 20.3998 13.6 19.4998 14.5C18.5998 15.4 17.3998 16 15.9998 16H13.8998C13.3998 16 12.9998 16.3 12.8998 16.8L12.1998 21.1C12.0998 21.6 11.6998 21.9 11.1998 21.9H8.19982C7.59982 21.9 7.09982 21.3 7.19982 20.7L7.39982 20C7.79982 19.9 8.09982 19.6 8.09982 19.2L8.89982 13.9C8.99982 13.4 9.39982 13 9.89982 13H12.9998C14.6998 13 16.1998 12.3 17.1998 11.2C18.1998 10.2 18.7998 8.9 18.8998 7.5C20.1998 8.2 20.9998 9.5 20.9998 11Z" fill="#0085CC"/>
</svg>
