<svg width="21" height="21" viewBox="0 0 21 21" fill="none" xmlns="http://www.w3.org/2000/svg">
<g clip-path="url(#clip0_0_164)">
<path d="M12.8508 20.9094C12.9037 20.9157 12.957 20.9189 13.0104 20.9189C13.3295 20.9184 13.6374 20.8013 13.8761 20.5895C14.1148 20.3777 14.2678 20.086 14.3063 19.7692C14.3655 19.2831 14.3949 18.7938 14.3944 18.3041C14.3909 15.1845 13.1502 12.1937 10.9442 9.98777C8.73834 7.78186 5.74749 6.54106 2.62787 6.5376C2.13818 6.53711 1.64891 6.56654 1.16281 6.62572C0.991067 6.64483 0.82482 6.6978 0.673679 6.78156C0.522537 6.86531 0.389499 6.9782 0.282256 7.1137C0.175013 7.24919 0.095693 7.4046 0.0488834 7.57093C0.00207384 7.73727 -0.011297 7.91124 0.00954351 8.08278C0.030384 8.25431 0.0850231 8.42002 0.170301 8.57031C0.255578 8.7206 0.369802 8.85249 0.506369 8.95836C0.642936 9.06423 0.799135 9.14198 0.965936 9.18711C1.13274 9.23224 1.30683 9.24386 1.47815 9.22129C1.85965 9.17514 2.24359 9.15213 2.62787 9.15239C5.05424 9.15509 7.38045 10.1202 9.09615 11.8359C10.8119 13.5516 11.7769 15.8778 11.7796 18.3041C11.7799 18.6884 11.7569 19.0724 11.7107 19.4539C11.6689 19.7981 11.7655 20.1448 11.9793 20.4177C12.1931 20.6907 12.5066 20.8675 12.8508 20.9094Z" fill="#696969"/>
<path d="M2.62801 0.000543049C2.13859 -0.00408268 1.64935 0.0208468 1.16294 0.0751953C0.992306 0.0956598 0.827379 0.149566 0.677597 0.233829C0.527814 0.318092 0.396115 0.43106 0.290031 0.566269C0.183948 0.701478 0.105564 0.856276 0.0593623 1.02181C0.0131601 1.18734 4.68688e-05 1.36035 0.020773 1.53096C0.041499 1.70156 0.0956569 1.8664 0.18015 2.01606C0.264643 2.16571 0.377812 2.29724 0.513184 2.40311C0.648555 2.50899 0.803473 2.58714 0.969075 2.63308C1.13468 2.67903 1.30771 2.69188 1.47828 2.67089C1.86005 2.62915 2.24399 2.6106 2.62801 2.61533C6.78746 2.62007 10.7752 4.27451 13.7164 7.21568C16.6575 10.1569 18.312 14.1446 18.3167 18.304C18.3167 18.7075 18.3059 19.1001 18.2702 19.4921C18.2544 19.663 18.2725 19.8354 18.3234 19.9993C18.3743 20.1633 18.4571 20.3156 18.5669 20.4476C18.6767 20.5795 18.8114 20.6886 18.9633 20.7684C19.1153 20.8483 19.2815 20.8975 19.4525 20.9131C19.4932 20.9169 19.5335 20.9188 19.573 20.9188C19.8988 20.9185 20.2128 20.7964 20.4533 20.5767C20.6939 20.3569 20.8437 20.0553 20.8735 19.7308C20.9169 19.2601 20.9315 18.7895 20.9315 18.304C20.926 13.4513 18.9959 8.79894 15.5645 5.36755C12.1331 1.93617 7.48072 0.00601043 2.62801 0.000543049Z" fill="#696969"/>
</g>
<defs>
<clipPath id="clip0_0_164">
<rect width="21" height="21" fill="white"/>
</clipPath>
</defs>
</svg>
