<svg width="86" height="34" viewBox="0 0 86 34" fill="none" xmlns="http://www.w3.org/2000/svg">
<path d="M-0.00016284 19C-0.00016284 20.4728 1.19374 21.6667 2.6665 21.6667C4.13926 21.6667 5.33317 20.4728 5.33317 19C5.33317 17.5272 4.13926 16.3333 2.6665 16.3333C1.19374 16.3333 -0.00016284 17.5272 -0.00016284 19ZM79.9998 19C79.9998 20.4728 81.1937 21.6667 82.6665 21.6667C84.1393 21.6667 85.3332 20.4728 85.3332 19C85.3332 17.5272 84.1393 16.3333 82.6665 16.3333C81.1937 16.3333 79.9998 17.5272 79.9998 19ZM2.6665 19.5H3.6665V18.5H2.6665V19.5ZM5.6665 19.5H7.6665V18.5H5.6665V19.5ZM9.6665 19.5L11.6665 19.5V18.5L9.6665 18.5V19.5ZM13.6665 19.5H15.6665V18.5H13.6665V19.5ZM17.6665 19.5H19.6665V18.5H17.6665V19.5ZM21.6665 19.5H23.6665V18.5H21.6665V19.5ZM25.6665 19.5H27.6665V18.5H25.6665V19.5ZM29.6665 19.5H31.6665V18.5H29.6665V19.5ZM33.6665 19.5H35.6665V18.5H33.6665V19.5ZM37.6665 19.5L39.6665 19.5V18.5L37.6665 18.5V19.5ZM41.6665 19.5H43.6665V18.5H41.6665V19.5ZM45.6665 19.5H47.6665V18.5H45.6665V19.5ZM49.6665 19.5H51.6665V18.5H49.6665V19.5ZM53.6665 19.5H55.6665V18.5H53.6665V19.5ZM57.6665 19.5H59.6665V18.5H57.6665V19.5ZM61.6665 19.5H63.6665V18.5H61.6665V19.5ZM65.6665 19.5H67.6665V18.5H65.6665V19.5ZM69.6665 19.5H71.6665V18.5H69.6665V19.5ZM73.6665 19.5H75.6665V18.5H73.6665V19.5ZM77.6665 19.5H79.6665V18.5H77.6665V19.5ZM81.6665 19.5L82.6665 19.5V18.5L81.6665 18.5V19.5Z" fill="#ACAAAA"/>
<circle cx="42.6665" cy="17" r="17" fill="white"/>
<g clip-path="url(#clip0_0_499)">
<path d="M49.246 12.9124C49.1153 11.6352 48.9072 10.6407 48.578 10.2499C47.2205 8.64271 37.7114 8.52509 36.6318 10.2499C36.3677 10.6724 36.1825 11.6633 36.0582 12.9145C35.6571 12.9617 35.3447 13.2994 35.3447 13.7128V15.2773C35.3447 15.6252 35.5652 15.9185 35.8729 16.033C35.8 18.4972 35.8592 21.0682 35.9684 22.3468C35.9684 23.3338 36.6314 23.1701 36.6314 23.1701H37.253V24.2356C37.253 24.6582 37.6885 25.0001 38.2252 25.0001C38.7626 25.0001 39.1981 24.6582 39.1981 24.2356V23.1701H46.4289V24.2356C46.4289 24.6582 46.8641 25.0001 47.4015 25.0001C47.9382 25.0001 48.3738 24.6582 48.3738 24.2356V23.1701H48.578C48.578 23.1701 49.3583 23.2771 49.4083 22.8123C49.4083 21.5372 49.4886 18.7113 49.4224 16.0439C49.7495 15.9414 49.9883 15.64 49.9883 15.2773V13.7128C49.9886 13.2895 49.6612 12.9462 49.246 12.9124ZM38.9541 10.4791H46.2557V11.5837H38.9541V10.4791ZM39.0584 21.9119C38.4851 21.9119 38.0206 21.4471 38.0206 20.8738C38.0206 20.3009 38.4851 19.8364 39.0584 19.8364C39.6316 19.8364 40.0964 20.3009 40.0964 20.8738C40.0964 21.4471 39.632 21.9119 39.0584 21.9119ZM46.2166 21.9119C45.6436 21.9119 45.1781 21.4471 45.1781 20.8738C45.1781 20.3009 45.6433 19.8364 46.2166 19.8364C46.7898 19.8364 47.2543 20.3009 47.2543 20.8738C47.2547 21.4471 46.7898 21.9119 46.2166 21.9119ZM47.536 17.3693H37.6738V12.1965H47.536V17.3693Z" fill="#2FB0BD"/>
</g>
<defs>
<clipPath id="clip0_0_499">
<rect width="16" height="16" fill="white" transform="translate(34.6665 9)"/>
</clipPath>
</defs>
</svg>
