<svg width="24" height="24" viewBox="0 0 24 24" fill="none" xmlns="http://www.w3.org/2000/svg">
<g clip-path="url(#clip0_0_139)">
<path d="M21.869 5.86829C21.673 3.95249 21.3609 2.46085 20.867 1.87454C18.8308 -0.536184 4.56715 -0.712604 2.94767 1.87454C2.55152 2.50838 2.27369 3.99475 2.08723 5.87146C1.48561 5.94224 1.01709 6.44879 1.01709 7.0689V9.41571C1.01709 9.93757 1.34775 10.3776 1.8094 10.5492C1.70006 14.2456 1.7888 18.102 1.95254 20.0199C1.95254 21.5005 2.94715 21.2549 2.94715 21.2549H3.87943V22.8532C3.87943 23.4871 4.53281 24 5.3378 24C6.14384 24 6.79722 23.4871 6.79722 22.8532V21.2549H17.6434V22.8532C17.6434 23.4871 18.2962 24 19.1023 24C19.9072 24 20.5606 23.4871 20.5606 22.8532V21.2549H20.867C20.867 21.2549 22.0375 21.4154 22.1125 20.7182C22.1125 18.8056 22.2329 14.5668 22.1336 10.5656C22.6243 10.4119 22.9824 9.95976 22.9824 9.41571V7.0689C22.983 6.434 22.4917 5.919 21.869 5.86829ZM6.43118 2.2184H17.3835V3.87538H6.43118V2.2184ZM6.58753 19.3676C5.72761 19.3676 5.03091 18.6704 5.03091 17.8105C5.03091 16.9511 5.72761 16.2544 6.58753 16.2544C7.44744 16.2544 8.14467 16.9511 8.14467 17.8105C8.14467 18.6704 7.44797 19.3676 6.58753 19.3676ZM17.3249 19.3676C16.4655 19.3676 15.7672 18.6704 15.7672 17.8105C15.7672 16.9511 16.4649 16.2544 17.3249 16.2544C18.1848 16.2544 18.8815 16.9511 18.8815 17.8105C18.882 18.6704 18.1848 19.3676 17.3249 19.3676ZM19.304 12.5538H4.51063V4.79445H19.304V12.5538Z" fill="#2FB0BD"/>
</g>
<defs>
<clipPath id="clip0_0_139">
<rect width="24" height="24" fill="white"/>
</clipPath>
</defs>
</svg>
