<svg width="100" height="100" viewBox="0 0 100 100" fill="none" xmlns="http://www.w3.org/2000/svg">
<g clip-path="url(#clip0_0_70)">
<path d="M50 100C77.6142 100 100 77.6142 100 50C100 22.3858 77.6142 0 50 0C22.3858 0 0 22.3858 0 50C0 77.6142 22.3858 100 50 100Z" fill="#D7D7D7"/>
<mask id="mask0_0_70" style="mask-type:alpha" maskUnits="userSpaceOnUse" x="0" y="0" width="100" height="100">
<path d="M50 100C77.6142 100 100 77.6142 100 50C100 22.3858 77.6142 0 50 0C22.3858 0 0 22.3858 0 50C0 77.6142 22.3858 100 50 100Z" fill="#A3A3B5"/>
</mask>
<g mask="url(#mask0_0_70)">
<path d="M10.9375 101.562C12.7116 84.5694 19.1895 70.4351 35.4005 62.3504C38.4195 60.8483 37.5977 59.9759 35.5306 58.2556C21.6145 46.6737 25.0081 25.2384 41.683 18.8095C52.2217 14.7469 63.7289 18.5026 69.7836 27.9845C75.643 37.1758 74.1944 49.1775 66.268 56.7858C64.9252 58.0779 63.4684 59.249 61.7188 60.7756C79.5247 68.7634 87.2641 83.2367 89.0625 101.562C63.0208 101.562 36.9792 101.562 10.9375 101.562Z" fill="white"/>
</g>
</g>
<defs>
<clipPath id="clip0_0_70">
<rect width="100" height="100" fill="white"/>
</clipPath>
</defs>
</svg>
