<svg width="22" height="22" viewBox="0 0 22 22" fill="none" xmlns="http://www.w3.org/2000/svg">
<path d="M11.1466 9.96433C11.0549 9.95516 10.9449 9.95516 10.8441 9.96433C8.66243 9.891 6.92993 8.1035 6.92993 5.9035C6.92993 3.65766 8.74493 1.8335 10.9999 1.8335C13.2458 1.8335 15.0699 3.65766 15.0699 5.9035C15.0608 8.1035 13.3283 9.891 11.1466 9.96433Z" stroke="black" stroke-width="1.5" stroke-linecap="round" stroke-linejoin="round"/>
<path d="M6.56341 13.3465C4.34507 14.8315 4.34507 17.2515 6.56341 18.7273C9.08424 20.414 13.2184 20.414 15.7392 18.7273C17.9576 17.2423 17.9576 14.8223 15.7392 13.3465C13.2276 11.669 9.09341 11.669 6.56341 13.3465Z" stroke="black" stroke-width="1.5" stroke-linecap="round" stroke-linejoin="round"/>
</svg>
