<svg width="20" height="20" viewBox="0 0 20 20" fill="none" xmlns="http://www.w3.org/2000/svg">
<path d="M17.1834 7.04183C16.3084 3.19183 12.9501 1.4585 10.0001 1.4585C10.0001 1.4585 10.0001 1.4585 9.99175 1.4585C7.05008 1.4585 3.68341 3.1835 2.80841 7.0335C1.83341 11.3335 4.46675 14.9752 6.85008 17.2668C7.73341 18.1168 8.86675 18.5418 10.0001 18.5418C11.1334 18.5418 12.2667 18.1168 13.1417 17.2668C15.5251 14.9752 18.1584 11.3418 17.1834 7.04183ZM10.0001 11.2168C8.55008 11.2168 7.37508 10.0418 7.37508 8.59183C7.37508 7.14183 8.55008 5.96683 10.0001 5.96683C11.4501 5.96683 12.6251 7.14183 12.6251 8.59183C12.6251 10.0418 11.4501 11.2168 10.0001 11.2168Z" fill="#2FB0BD"/>
</svg>
