<svg width="22" height="22" viewBox="0 0 22 22" fill="none" xmlns="http://www.w3.org/2000/svg">
<path d="M9.61573 2.04418L5.04157 3.76751C3.9874 4.16168 3.12573 5.40835 3.12573 6.52668V13.3375C3.12573 14.4192 3.84073 15.84 4.71157 16.4908L8.65323 19.4333C9.94573 20.405 12.0724 20.405 13.3649 19.4333L17.3066 16.4908C18.1774 15.84 18.8924 14.4192 18.8924 13.3375V6.52668C18.8924 5.39918 18.0307 4.15251 16.9766 3.75835L12.4024 2.04418C11.6232 1.76001 10.3766 1.76001 9.61573 2.04418Z" stroke="black" stroke-width="1.5" stroke-linecap="round" stroke-linejoin="round"/>
<path d="M11.0001 11.4582C12.0126 11.4582 12.8334 10.6374 12.8334 9.62484C12.8334 8.61232 12.0126 7.7915 11.0001 7.7915C9.98756 7.7915 9.16675 8.61232 9.16675 9.62484C9.16675 10.6374 9.98756 11.4582 11.0001 11.4582Z" stroke="#292D32" stroke-width="1.5" stroke-miterlimit="10" stroke-linecap="round" stroke-linejoin="round"/>
<path d="M11 11.4585V14.2085" stroke="#292D32" stroke-width="1.5" stroke-miterlimit="10" stroke-linecap="round" stroke-linejoin="round"/>
</svg>
