<svg width="86" height="34" viewBox="0 0 86 34" fill="none" xmlns="http://www.w3.org/2000/svg">
<path d="M8.13007e-05 19C8.13007e-05 20.4728 1.19399 21.6667 2.66675 21.6667C4.13951 21.6667 5.33341 20.4728 5.33341 19C5.33341 17.5272 4.13951 16.3333 2.66675 16.3333C1.19399 16.3333 8.13007e-05 17.5272 8.13007e-05 19ZM80.0001 19C80.0001 20.4728 81.194 21.6667 82.6667 21.6667C84.1395 21.6667 85.3334 20.4728 85.3334 19C85.3334 17.5272 84.1395 16.3333 82.6667 16.3333C81.194 16.3333 80.0001 17.5272 80.0001 19ZM2.66675 19.5H3.66675V18.5H2.66675V19.5ZM5.66675 19.5H7.66675V18.5H5.66675V19.5ZM9.66675 19.5L11.6667 19.5V18.5L9.66675 18.5V19.5ZM13.6667 19.5H15.6667V18.5H13.6667V19.5ZM17.6667 19.5H19.6667V18.5H17.6667V19.5ZM21.6667 19.5H23.6667V18.5H21.6667V19.5ZM25.6667 19.5H27.6667V18.5H25.6667V19.5ZM29.6667 19.5H31.6667V18.5H29.6667V19.5ZM33.6667 19.5H35.6667V18.5H33.6667V19.5ZM37.6667 19.5L39.6667 19.5V18.5L37.6667 18.5V19.5ZM41.6667 19.5H43.6667V18.5H41.6667V19.5ZM45.6667 19.5H47.6667V18.5H45.6667V19.5ZM49.6667 19.5H51.6667V18.5H49.6667V19.5ZM53.6667 19.5H55.6667V18.5H53.6667V19.5ZM57.6667 19.5H59.6667V18.5H57.6667V19.5ZM61.6667 19.5H63.6667V18.5H61.6667V19.5ZM65.6667 19.5H67.6667V18.5H65.6667V19.5ZM69.6667 19.5H71.6667V18.5H69.6667V19.5ZM73.6667 19.5H75.6667V18.5H73.6667V19.5ZM77.6667 19.5H79.6667V18.5H77.6667V19.5ZM81.6667 19.5L82.6667 19.5V18.5L81.6667 18.5V19.5Z" fill="#ACAAAA"/>
<circle cx="42.6667" cy="17" r="17" fill="white"/>
<g clip-path="url(#clip0_0_724)">
<path d="M49.2462 12.9121C49.1156 11.6349 48.9075 10.6405 48.5782 10.2496C47.2208 8.64246 37.7117 8.52485 36.632 10.2496C36.3679 10.6722 36.1827 11.6631 36.0584 12.9142C35.6573 12.9614 35.345 13.2991 35.345 13.7125V15.2771C35.345 15.625 35.5654 15.9183 35.8732 16.0327C35.8003 18.497 35.8594 21.0679 35.9686 22.3465C35.9686 23.3336 36.6317 23.1698 36.6317 23.1698H37.2532V24.2354C37.2532 24.658 37.6888 24.9999 38.2254 24.9999C38.7628 24.9999 39.1984 24.658 39.1984 24.2354V23.1698H46.4291V24.2354C46.4291 24.658 46.8644 24.9999 47.4017 24.9999C47.9384 24.9999 48.374 24.658 48.374 24.2354V23.1698H48.5782C48.5782 23.1698 49.3586 23.2769 49.4086 22.8121C49.4086 21.537 49.4889 18.7111 49.4227 16.0437C49.7498 15.9412 49.9885 15.6398 49.9885 15.2771V13.7125C49.9889 13.2892 49.6614 12.9459 49.2462 12.9121ZM38.9544 10.4789H46.2559V11.5835H38.9544V10.4789ZM39.0586 21.9117C38.4853 21.9117 38.0209 21.4468 38.0209 20.8736C38.0209 20.3006 38.4853 19.8362 39.0586 19.8362C39.6319 19.8362 40.0967 20.3006 40.0967 20.8736C40.0967 21.4468 39.6322 21.9117 39.0586 21.9117ZM46.2168 21.9117C45.6439 21.9117 45.1784 21.4468 45.1784 20.8736C45.1784 20.3006 45.6435 19.8362 46.2168 19.8362C46.7901 19.8362 47.2546 20.3006 47.2546 20.8736C47.2549 21.4468 46.7901 21.9117 46.2168 21.9117ZM47.5363 17.3691H37.674V12.1962H47.5363V17.3691Z" fill="#696969"/>
</g>
<defs>
<clipPath id="clip0_0_724">
<rect width="16" height="16" fill="white" transform="translate(34.6667 9)"/>
</clipPath>
</defs>
</svg>
