<svg width="86" height="34" viewBox="0 0 86 34" fill="none" xmlns="http://www.w3.org/2000/svg">
<path d="M0.333333 19C0.333333 20.4728 1.52724 21.6667 3 21.6667C4.47276 21.6667 5.66667 20.4728 5.66667 19C5.66667 17.5272 4.47276 16.3333 3 16.3333C1.52724 16.3333 0.333333 17.5272 0.333333 19ZM80.3333 19C80.3333 20.4728 81.5272 21.6667 83 21.6667C84.4728 21.6667 85.6667 20.4728 85.6667 19C85.6667 17.5272 84.4728 16.3333 83 16.3333C81.5272 16.3333 80.3333 17.5272 80.3333 19ZM3 19.5H4V18.5H3V19.5ZM6 19.5H8V18.5H6V19.5ZM10 19.5L12 19.5V18.5L10 18.5V19.5ZM14 19.5H16V18.5H14V19.5ZM18 19.5H20V18.5H18V19.5ZM22 19.5H24V18.5H22V19.5ZM26 19.5H28V18.5H26V19.5ZM30 19.5H32V18.5H30V19.5ZM34 19.5H36V18.5H34V19.5ZM38 19.5L40 19.5V18.5L38 18.5V19.5ZM42 19.5H44V18.5H42V19.5ZM46 19.5H48V18.5H46V19.5ZM50 19.5H52V18.5H50V19.5ZM54 19.5H56V18.5H54V19.5ZM58 19.5H60V18.5H58V19.5ZM62 19.5H64V18.5H62V19.5ZM66 19.5H68V18.5H66V19.5ZM70 19.5H72V18.5H70V19.5ZM74 19.5H76V18.5H74V19.5ZM78 19.5H80V18.5H78V19.5ZM82 19.5L83 19.5V18.5L82 18.5V19.5Z" fill="#ACAAAA"/>
<circle cx="43" cy="17" r="17" fill="white"/>
<g clip-path="url(#clip0_7445_924)">
<path d="M49.5795 12.9121C49.4488 11.6349 49.2407 10.6405 48.9115 10.2496C47.554 8.64246 38.0449 8.52485 36.9653 10.2496C36.7012 10.6722 36.516 11.6631 36.3916 12.9142C35.9906 12.9614 35.6782 13.2991 35.6782 13.7125V15.2771C35.6782 15.625 35.8987 15.9183 36.2064 16.0327C36.1335 18.497 36.1927 21.0679 36.3019 22.3465C36.3019 23.3336 36.9649 23.1698 36.9649 23.1698H37.5864V24.2354C37.5864 24.658 38.022 24.9999 38.5587 24.9999C39.0961 24.9999 39.5316 24.658 39.5316 24.2354V23.1698H46.7624V24.2354C46.7624 24.658 47.1976 24.9999 47.735 24.9999C48.2717 24.9999 48.7072 24.658 48.7072 24.2354V23.1698H48.9115C48.9115 23.1698 49.6918 23.2769 49.7418 22.8121C49.7418 21.537 49.8221 18.7111 49.7559 16.0437C50.083 15.9412 50.3218 15.6398 50.3218 15.2771V13.7125C50.3221 13.2892 49.9947 12.9459 49.5795 12.9121ZM39.2876 10.4789H46.5892V11.5835H39.2876V10.4789ZM39.3918 21.9117C38.8186 21.9117 38.3541 21.4468 38.3541 20.8736C38.3541 20.3006 38.8186 19.8362 39.3918 19.8362C39.9651 19.8362 40.4299 20.3006 40.4299 20.8736C40.4299 21.4468 39.9655 21.9117 39.3918 21.9117ZM46.5501 21.9117C45.9771 21.9117 45.5116 21.4468 45.5116 20.8736C45.5116 20.3006 45.9768 19.8362 46.5501 19.8362C47.1233 19.8362 47.5878 20.3006 47.5878 20.8736C47.5882 21.4468 47.1233 21.9117 46.5501 21.9117ZM47.8695 17.3691H38.0072V12.1962H47.8695V17.3691Z" fill="#696969"/>
</g>
<defs>
<clipPath id="clip0_7445_924">
<rect width="16" height="16" fill="white" transform="translate(35 9)"/>
</clipPath>
</defs>
</svg>
