<svg width="24" height="24" viewBox="0 0 24 24" fill="none" xmlns="http://www.w3.org/2000/svg">
<path d="M20.97 16.08C20.73 18.75 18.8 20.5 16 20.5L7 20.5C4.24 20.5 2 18.26 2 15.5L2 8.5C2 5.78 3.64 3.88 6.19 3.56C6.45 3.52 6.72 3.5 7 3.5L16 3.5C16.26 3.5 16.51 3.51 16.75 3.55C19.14 3.83 20.76 5.5 20.97 7.92C21 8.21 20.76 8.45 20.47 8.45H18.92C17.96 8.45 17.07 8.82 16.43 9.48C15.67 10.22 15.29 11.26 15.38 12.3C15.54 14.12 17.14 15.55 19.04 15.55H20.47C20.76 15.55 21 15.79 20.97 16.08Z" fill="#292D32"/>
<path d="M22.0002 10.9702V13.0302C22.0002 13.5802 21.5602 14.0302 21.0002 14.0502H19.0402C17.9602 14.0502 16.9702 13.2602 16.8802 12.1802C16.8202 11.5502 17.0602 10.9602 17.4802 10.5502C17.8502 10.1702 18.3602 9.9502 18.9202 9.9502H21.0002C21.5602 9.9702 22.0002 10.4202 22.0002 10.9702Z" fill="#292D32"/>
</svg>
